<svg version="1.1" id="Layer_1" xmlns="http://www.w3.org/2000/svg" xmlns:xlink="http://www.w3.org/1999/xlink" x="0px" y="0px"
	 width="100%" viewBox="0 0 448 448" enable-background="new 0 0 448 448" xml:space="preserve">
<path fill="#000000" opacity="1.000000" stroke="none" 
	d="
M395.242126,220.835907 
	C425.930298,277.152435 398.079437,345.723175 337.945251,363.547363 
	C312.777924,371.007141 288.597382,368.511566 265.245880,357.121429 
	C260.874298,354.989105 259.020294,355.856842 256.676514,359.830994 
	C240.744400,386.845825 217.450256,404.264404 186.554871,409.802368 
	C133.903870,419.240082 84.073555,385.049408 73.534485,333.708130 
	C69.926880,316.133606 70.747070,298.972107 76.441322,282.129700 
	C78.047379,277.379333 76.957787,274.837219 73.345078,272.038788 
	C60.506248,262.093872 50.466087,249.842773 43.330795,235.176025 
	C15.244200,177.443405 51.483562,107.083824 114.405121,96.428299 
	C136.666290,92.658455 157.356735,96.199547 177.424667,105.676399 
	C178.478180,106.173904 179.534821,106.670700 180.618149,107.096176 
	C181.060471,107.269890 181.577835,107.252571 182.106384,107.328690 
	C184.724228,105.021049 185.613159,101.685684 187.263702,98.844360 
	C199.745331,77.357903 218.085846,63.220646 241.671585,56.013103 
	C283.127472,43.344650 326.039032,56.281452 351.480743,91.320946 
	C371.287842,118.600235 375.431641,148.877228 365.153168,180.950272 
	C363.895691,184.874084 364.489899,186.818726 367.708893,189.144760 
	C379.220917,197.463333 388.288940,208.013962 395.242126,220.835907 
M289.826447,155.996368 
	C315.533173,151.963379 316.598175,151.917709 320.203308,155.045105 
	C296.898560,157.305923 274.217773,160.619904 255.455490,175.767303 
	C281.716003,163.048996 307.445953,156.455872 317.636841,161.127640 
	C300.411499,162.401779 284.772339,164.742691 270.093475,171.403946 
	C254.914215,178.292297 243.871780,189.418655 234.818161,203.765091 
	C238.376114,204.077087 239.421722,201.871521 240.846817,200.446136 
	C248.907974,192.383286 257.539703,185.108139 268.145508,180.578201 
	C292.142151,170.328735 316.676239,168.472351 341.803802,175.963379 
	C348.795807,178.047836 348.896698,177.995071 350.925140,170.865662 
	C354.256744,159.155853 354.772064,147.234619 352.613312,135.303741 
	C348.627655,113.275696 336.779236,97.627525 315.212372,89.945946 
	C299.078979,84.199623 282.543854,84.175308 265.928650,86.407745 
	C242.774857,89.518684 221.843475,97.756432 204.921570,114.518616 
	C199.026566,120.357986 199.033447,120.727371 204.774673,126.928734 
	C213.626022,136.489456 219.971558,147.559280 224.323807,159.767899 
	C226.749435,166.572083 221.565659,172.837280 214.864029,171.485001 
	C210.925430,170.690247 209.090820,167.685410 207.887482,164.315598 
	C205.050720,156.371429 200.717346,149.307068 195.595093,142.683792 
	C194.508301,141.278488 193.614960,139.520432 191.031876,139.477005 
	C187.334076,144.860748 187.867386,151.095871 188.637421,157.081238 
	C191.308273,177.841660 201.311035,195.058289 215.233444,210.242950 
	C220.710968,216.217072 221.630051,215.858917 224.822128,208.638123 
	C231.385071,193.792221 238.806259,179.486008 251.997208,169.132690 
	C268.721832,156.005829 288.489777,151.212479 308.924988,148.638412 
	C312.764282,148.154816 317.250702,147.045242 321.233795,149.614365 
	C317.165588,151.086685 313.087952,151.706711 308.816345,152.077591 
	C302.125671,152.658524 295.180084,152.543320 288.190277,156.026321 
	C274.217163,158.425293 262.083557,164.565048 251.459656,173.765121 
	C255.081985,171.859589 258.498596,169.560928 261.996887,167.394135 
	C270.398071,162.190628 279.891815,159.546371 289.826447,155.996368 
M155.117508,304.979492 
	C144.064575,305.083801 132.965302,307.327576 121.883217,304.099091 
	C139.038284,302.967712 156.505173,304.094330 172.394791,295.766418 
	C156.944534,298.504761 141.574448,302.102448 125.586121,298.582367 
	C156.749313,299.108917 185.364792,293.480530 206.004974,267.487244 
	C204.369019,268.131104 202.884888,269.107788 201.412369,270.101654 
	C200.723526,270.566620 200.043304,271.046722 199.382614,271.550690 
	C169.177063,294.591736 136.089706,299.350708 100.356735,287.097595 
	C93.406700,284.714355 92.663391,284.818237 90.891182,291.712097 
	C87.177757,306.157166 86.611763,320.741394 91.139297,335.077118 
	C99.575989,361.790710 119.163826,375.823792 145.555344,381.647644 
	C163.182709,385.537537 180.727844,383.951752 197.893036,379.262726 
	C215.698471,374.398895 231.562561,365.901733 243.794067,351.508820 
	C246.810501,347.959351 247.334244,345.433655 243.471466,341.978912 
	C233.159805,332.756500 225.323227,321.656433 219.763000,308.938232 
	C217.133194,302.922943 217.976578,298.744995 222.689911,296.619141 
	C227.997009,294.225464 232.720276,296.152954 235.252090,301.777649 
	C238.903244,309.889160 243.531540,317.366516 249.651657,323.858215 
	C250.969955,325.256561 252.051605,327.164673 254.429382,326.945129 
	C256.521027,323.792908 256.429901,323.785187 256.703583,320.559662 
	C258.827637,295.526917 250.973083,273.652405 235.771622,254.078278 
	C228.112076,244.215500 228.295380,244.373901 222.831787,255.346268 
	C214.972168,271.130524 205.708954,286.143799 190.371475,295.766815 
	C169.250916,309.018280 145.757431,312.288757 121.292946,310.280853 
	C120.622452,310.225830 120.042549,309.841705 120.228661,308.672302 
	C120.674515,308.524200 121.294250,308.085693 121.821594,308.177582 
	C132.368027,310.014923 142.579163,306.484711 152.991318,306.291565 
	C154.214249,306.268890 155.328049,306.205780 156.796356,305.013123 
	C161.476059,304.745667 166.023300,303.982544 169.990799,301.005554 
	C165.324051,302.331146 160.657303,303.656769 155.117508,304.979492 
M164.096909,161.585907 
	C166.038559,174.174316 171.613129,188.799896 176.200195,193.340408 
	C167.356812,173.778564 164.072784,153.439575 167.552933,132.161392 
	C168.102722,147.637558 167.869354,163.153381 173.169907,178.139877 
	C179.014694,194.665161 190.045868,210.371048 200.090805,215.283752 
	C177.394379,185.971497 171.640121,166.542831 175.695984,132.917023 
	C176.595276,125.461143 176.076965,124.461739 169.388275,121.002090 
	C151.749878,111.878830 133.080750,108.951286 113.830215,113.683540 
	C82.339218,121.424797 65.286308,142.481613 61.620876,171.670334 
	C57.946426,200.930817 65.898880,227.789734 83.359550,251.672974 
	C87.248634,256.992584 88.573479,257.029999 92.704315,251.885361 
	C107.369682,233.620697 126.336090,222.426208 149.056519,217.308868 
	C155.130371,215.940842 159.114029,217.682205 160.330399,222.334885 
	C161.928207,228.446640 159.825409,231.753906 153.019699,233.403473 
	C134.310959,237.938110 118.387802,246.974731 106.257744,262.165070 
	C101.343147,268.319550 101.828804,270.139954 108.810005,273.840851 
	C121.230293,280.425110 134.486816,282.090942 148.031921,279.373474 
	C175.077042,273.947632 195.238434,257.967804 211.531158,236.444519 
	C213.351791,234.039368 212.901596,232.201828 210.236572,230.779312 
	C207.298111,229.210800 204.363831,227.624405 201.510208,225.908615 
	C184.763458,215.839233 170.385803,203.559692 163.088562,184.665604 
	C157.123505,169.220749 155.189957,153.131134 155.568466,136.721985 
	C155.643356,133.475250 154.692566,129.905701 157.388626,126.787376 
	C157.409134,151.308060 158.872360,175.421921 173.026657,196.599243 
	C167.993698,186.018982 163.411911,175.329437 161.659531,163.516876 
	C159.062729,146.012100 158.893082,133.666336 162.392487,127.936180 
	C162.586761,139.335052 161.762344,150.130539 164.096909,161.585907 
M280.348267,323.405304 
	C280.399353,327.928406 280.004700,332.362579 277.555359,336.487518 
	C278.655731,324.623657 279.478180,312.828949 277.514282,301.038086 
	C274.729095,284.316132 269.287933,271.020416 264.337524,269.170532 
	C262.864136,271.006531 264.246765,272.652924 264.776947,274.278748 
	C270.829742,292.840942 272.319275,311.666931 268.231079,330.846954 
	C266.586639,338.562195 266.927490,339.180298 274.183258,342.632568 
	C289.650238,349.991669 305.842896,352.662506 322.782227,349.801666 
	C360.125092,343.494873 377.248993,319.180389 376.407104,285.907318 
	C375.826538,262.961273 368.976685,241.366287 356.495087,221.851288 
	C354.216492,218.288681 351.959442,214.577652 348.522858,212.031570 
	C347.954132,212.307434 347.585419,212.381821 347.376190,212.605453 
	C346.353088,213.698929 345.398743,214.856842 344.373016,215.947693 
	C330.781708,230.401688 314.554626,240.401566 295.009277,244.419876 
	C288.309052,245.797363 284.525787,241.449753 285.843506,234.734100 
	C286.657440,230.586060 289.518188,228.762207 293.394287,227.759613 
	C308.811401,223.771835 321.672546,215.540039 332.559448,204.007904 
	C335.703461,200.677567 335.027100,198.296707 331.472870,195.991348 
	C317.279572,186.785095 302.357330,183.657104 285.851959,189.300507 
	C265.601471,196.224442 250.685867,209.741684 238.108139,226.402161 
	C234.960999,230.570877 235.087967,231.928696 239.727478,234.461533 
	C246.192078,237.990814 252.149963,242.235657 257.923126,246.747498 
	C270.224274,256.361115 280.080505,267.821136 285.130463,282.937561 
	C290.873047,300.127472 292.106079,317.736145 289.949921,335.596436 
	C289.670929,337.907501 290.527740,341.124817 286.891754,343.554199 
	C290.202911,320.742828 288.782715,299.294189 280.080841,278.756409 
	C285.652924,298.878723 289.969208,319.047821 283.300385,339.913177 
	C284.204865,322.538086 285.293182,305.156281 278.285461,288.561523 
	C280.904907,299.738953 280.346558,311.100830 280.348267,323.405304 
z"/>
</svg>